HIERARCHY
ROOT Hips
{
	OFFSET 0.0000 0.0000 0.0000
	CHANNELS 6 Xposition Yposition Zposition Zrotation Xrotation Yrotation
	JOINT Ab
	{
		OFFSET -0.0000 8.0846 -0.0000
		CHANNELS 3 Zrotation Xrotation Yrotation
		JOINT Chest
		{
			OFFSET -0.0000 25.0068 -0.0000
			CHANNELS 3 Zrotation Xrotation Yrotation
			JOINT Neck
			{
				OFFSET -0.0000 25.0068 0.0000
				CHANNELS 3 Zrotation Xrotation Yrotation
				JOINT Head
				{
					OFFSET -0.0000 10.7556 0.0000
					CHANNELS 3 Zrotation Xrotation Yrotation
					End Site
					{
						OFFSET -0.0000 16.6222 0.0000
					}
				}
			}
			JOINT LeftCollar
			{
				OFFSET -0.0000 25.0068 0.0000
				CHANNELS 3 Zrotation Xrotation Yrotation
				JOINT LeftShoulder
				{
					OFFSET 19.5556 -0.0000 0.0000
					CHANNELS 3 Zrotation Xrotation Yrotation
					JOINT LeftElbow
					{
						OFFSET 27.1828 0.0000 0.0000
						CHANNELS 3 Zrotation Xrotation Yrotation
						JOINT LeftWrist
						{
							OFFSET 23.3157 0.0000 0.0000
							CHANNELS 3 Zrotation Xrotation Yrotation
							End Site
							{
								OFFSET 0.0000 -14.6667 0.0000
							}
						}
					}
				}
			}
			JOINT RightCollar
			{
				OFFSET -0.0000 25.0068 0.0000
				CHANNELS 3 Zrotation Xrotation Yrotation
				JOINT RightShoulder
				{
					OFFSET -19.5556 0.0000 0.0000
					CHANNELS 3 Zrotation Xrotation Yrotation
					JOINT RightElbow
					{
						OFFSET -27.1828 0.0000 0.0000
						CHANNELS 3 Zrotation Xrotation Yrotation
						JOINT RightWrist
						{
							OFFSET -23.3157 0.0000 0.0000
							CHANNELS 3 Zrotation Xrotation Yrotation
							End Site
							{
								OFFSET -0.0000 -14.6667 0.0000
							}
						}
					}
				}
			}
		}
	}
	JOINT LeftHip
	{
		OFFSET 11.7333 0.0000 0.0000
		CHANNELS 3 Zrotation Xrotation Yrotation
		JOINT LeftKnee
		{
			OFFSET -0.0000 -40.8688 0.0000
			CHANNELS 3 Zrotation Xrotation Yrotation
			JOINT LeftAnkle
			{
				OFFSET -0.0000 -44.4337 0.0000
				CHANNELS 3 Zrotation Xrotation Yrotation
				End Site
				{
					OFFSET -0.0000 -4.8889 16.6222
				}
			}
		}
	}
	JOINT RightHip
	{
		OFFSET -11.7333 0.0000 0.0000
		CHANNELS 3 Zrotation Xrotation Yrotation
		JOINT RightKnee
		{
			OFFSET -0.0000 -40.8688 0.0000
			CHANNELS 3 Zrotation Xrotation Yrotation
			JOINT RightAnkle
			{
				OFFSET -0.0000 -44.4337 0.0000
				CHANNELS 3 Zrotation Xrotation Yrotation
				End Site
				{
					OFFSET -0.0000 -4.8889 16.6222
				}
			}
		}
	}
}
MOTION
Frames: 12
Frame Time: 0.010000
1.2502 85.3824 121.9632 1.9644 354.8489 178.1402 4.6372 8.1927 2.9266 350.1539 7.1109 3.8710 357.1988 341.5052 356.8031 6.9847 4.7540 356.9989 343.6808 356.8061 20.3470 305.4516 36.5522 8.8454 29.9279 350.0739 323.6378 88.1486 352.0094 357.6695 19.3553 359.1756 355.3154 30.0648 56.4096 41.6810 332.3241 348.1229 46.7632 273.9061 345.1809 16.3944 4.5366 335.7759 358.1011 354.6324 30.3588 358.2987 356.0727 348.2070 23.3488 3.4019 353.8318 1.9507 357.9739 26.8728 14.1870 354.1123 338.7761 335.7734 
1.2449 85.2099 120.9284 2.3924 355.1404 177.8917 4.7465 8.0805 2.8762 350.0015 6.7801 3.8040 357.3349 341.0909 356.8601 7.1846 5.1947 357.0054 343.1938 356.8689 19.0162 304.7478 32.5420 9.1177 28.2272 351.0464 324.9566 88.1931 351.6022 356.1088 19.6713 359.1887 355.4420 32.2111 55.8831 39.4122 333.4359 348.9767 45.7044 274.2533 344.7561 18.3329 5.1505 336.2991 358.2262 353.6821 31.6875 357.1365 356.9589 346.8342 23.9666 3.9447 354.0838 1.7801 357.5198 28.0922 14.5408 354.6928 338.9515 336.1665 
1.2606 85.0544 119.9127 2.7651 355.5114 177.6084 4.5839 8.0787 2.8360 350.1604 6.4863 3.7175 357.5759 340.4218 356.9797 7.1359 5.9343 357.0613 342.5937 356.9597 17.3361 304.2290 26.9578 9.5887 26.2605 352.0195 325.4148 87.7374 351.6932 353.9327 19.9241 359.1872 355.3680 33.7922 55.1811 37.7481 334.3969 349.6733 44.5616 274.9511 344.8236 19.4399 5.8651 336.8885 358.4249 352.8123 32.5006 357.1886 358.2514 346.6157 23.0567 4.5127 354.1908 1.5673 356.9134 29.7090 14.8236 355.5964 339.0153 336.6651 
1.2256 85.0289 118.9778 2.7976 355.8031 177.5411 4.2067 8.0911 2.6158 350.1904 6.2203 3.4461 357.8063 339.8774 357.0335 7.3105 6.4037 357.0550 342.1061 357.1707 15.1478 304.0901 19.3267 10.1760 23.3708 353.2443 325.1599 88.8580 351.7839 351.1231 20.2616 359.1896 355.5249 36.6054 53.9458 34.6735 335.2389 350.2508 43.5888 275.5110 344.1954 21.0666 5.9927 337.5719 358.8567 352.7905 32.7269 358.2210 356.5811 345.8989 22.7486 4.7409 353.9077 1.2205 356.4565 31.5661 14.1057 356.7912 338.9652 337.9053 
1.1758 85.0769 117.9802 2.7169 356.2177 177.4032 3.6241 8.0953 2.5416 350.2455 6.3082 3.3356 358.3107 338.8583 357.2190 7.3627 7.1021 357.1106 341.7331 357.4291 13.1524 304.0679 11.6455 10.7366 20.7476 354.1978 324.7058 89.2887 351.8644 347.9221 20.5376 359.2123 355.6990 39.3355 52.3568 31.8682 335.9775 350.7327 42.7268 276.5280 344.0016 22.4736 5.8251 338.6279 359.6485 353.3333 32.6894 358.7414 355.1470 345.1405 21.5910 4.8180 353.6012 1.0913 356.1396 33.7274 13.9864 357.5530 339.8096 338.3424 
1.1350 85.1832 117.1676 2.5514 356.4664 177.4474 3.1156 8.0514 2.5042 350.2957 6.4327 3.2701 358.9182 337.7769 357.4031 7.1853 7.8554 357.1438 341.5521 357.7088 11.3522 304.1037 4.7386 11.2510 18.5403 354.8962 324.2710 88.9145 351.8734 344.4540 20.6305 359.2381 355.7581 41.8653 50.7245 29.3035 336.5464 351.1264 41.7385 277.2720 343.9658 23.2984 5.4441 339.4805 0.3369 353.9417 32.5381 358.6199 354.7721 344.7907 20.6169 4.7412 353.1080 1.1684 356.0166 35.6918 13.4780 358.0733 341.3294 338.7991 
1.0880 85.3017 116.0560 2.4503 356.7342 177.2742 2.5898 7.7721 2.2841 350.1122 6.6051 3.0301 359.2340 337.0466 357.5860 7.7481 8.3865 357.2149 341.5346 358.0175 9.6874 303.8540 358.6133 11.8229 16.7108 355.4146 324.1762 89.0494 351.8960 341.4040 21.0654 359.2326 355.8668 43.8088 49.3589 27.1893 336.9068 351.4479 40.5287 277.5814 343.7959 23.1222 5.2706 340.8872 1.1995 354.1819 31.9632 357.8002 354.8984 344.4508 20.2811 4.8305 352.3038 1.1818 355.6939 38.4848 12.9744 358.2065 342.5136 339.3834 
1.0307 85.4314 115.0783 2.3551 356.8836 177.3066 2.4195 7.6739 1.8243 349.7513 6.3719 2.5541 359.6590 336.5029 358.0654 8.2973 8.9239 357.5711 341.4222 358.2045 9.2174 303.2734 357.2720 11.3803 16.9720 355.0166 325.1280 88.8383 351.9611 341.0667 21.3385 359.2577 356.1690 45.7798 48.1707 24.8072 337.3189 351.8373 39.4236 277.4760 343.5862 22.6441 5.0804 342.1386 1.2789 353.9953 31.2435 357.3559 354.6480 343.8942 20.7881 4.8111 351.4223 1.3821 355.8030 40.9850 11.8643 357.0746 343.9753 339.5128 
0.9739 85.5691 114.1799 2.3240 356.9065 177.3787 2.3824 7.4645 1.3063 349.3968 6.2550 2.0417 359.9690 335.8986 358.5696 8.7688 9.5206 357.9606 341.4789 358.3529 9.0410 302.6103 356.8214 10.8518 17.3368 354.7381 325.6724 87.6960 351.7995 340.1742 21.4068 359.2974 356.4720 47.3805 46.8296 22.8807 338.2307 352.4669 38.5642 276.7999 343.4440 23.4099 4.8977 343.1962 1.1836 353.9723 30.5208 357.2249 354.5972 343.5240 20.7989 4.7681 350.3097 1.6093 356.0698 43.4491 10.3434 356.6217 345.6564 340.3434 
0.9255 85.7108 113.4161 2.3169 356.9684 177.5766 2.2653 7.4232 0.9326 349.3753 6.0578 1.6442 0.4510 335.3741 359.0889 8.8120 10.0516 358.3429 341.4935 358.4342 8.9417 302.1624 356.6993 10.4809 17.2750 354.7059 325.6600 86.5481 351.6152 338.5968 21.2489 359.3342 356.6271 48.4016 45.7161 21.4495 339.0816 352.9804 37.9403 276.6416 343.4859 25.0607 4.7029 344.0488 0.8332 353.9576 29.9870 357.2924 354.5745 343.2206 20.7431 4.6852 349.3827 1.7320 356.4540 45.5172 9.1804 355.5347 347.0152 340.6472 
0.8454 85.8263 112.4627 2.3138 356.9935 177.6703 2.0281 7.3141 0.5191 349.3702 5.7062 1.1802 0.8537 335.0980 359.6074 8.9174 10.6305 358.7258 341.4226 358.5040 8.5005 302.0869 356.3065 10.5052 16.3014 355.0790 324.8413 85.7526 351.8598 336.7281 21.1911 359.3379 356.4625 49.4461 45.2005 19.9336 339.6103 353.2313 37.5690 276.9246 343.4544 27.5809 4.4993 345.1732 0.6451 354.0376 29.1134 357.3076 354.4733 342.9563 20.7260 4.5151 348.2390 1.8293 357.1956 47.9260 7.8766 354.6577 347.2560 340.6212 
0.7712 85.9551 111.5727 2.3641 356.9861 177.7723 1.8662 7.3132 0.1363 349.4199 5.2303 0.7440 1.2200 334.7716 0.0802 8.8765 11.2850 359.0705 341.2985 358.5575 8.3870 301.9735 357.0284 10.2547 15.6872 355.1689 324.1778 84.4605 351.9090 335.7734 21.1200 359.3082 356.1620 49.9416 44.9620 18.7654 340.2663 353.5168 37.4330 277.2507 343.1718 30.5347 4.3750 346.2066 0.3934 354.0630 28.2679 357.2301 354.2975 342.7090 20.8160 4.4102 347.0189 1.8052 357.8180 50.1746 6.7823 354.7344 346.1781 340.0303 
